<?xml version="1.0" standalone="no"?>
<!DOCTYPE svg PUBLIC "-//W3C//DTD SVG 20010904//EN"
 "http://www.w3.org/TR/2001/REC-SVG-20010904/DTD/svg10.dtd">
<svg version="1.0" xmlns="http://www.w3.org/2000/svg"
 width="300.000000pt" height="142.000000pt" viewBox="0 0 300.000000 142.000000"
 preserveAspectRatio="xMidYMid meet">
<metadata>
Created by potrace 1.10, written by Peter Selinger 2001-2011
</metadata>
<g transform="translate(0.000000,142.000000) scale(0.100000,-0.100000)"
fill="#000000" stroke="none">
<path d="M25 778 l7 -601 34 -1 c28 -1 34 3 34 19 1 32 25 91 51 123 21 27 83
62 108 62 4 0 11 -60 14 -134 3 -73 10 -142 16 -152 5 -11 13 -36 16 -56 3
-21 11 -38 16 -38 7 0 10 35 7 100 l-3 100 498 0 497 -1 0 -79 c0 -79 0 -80
25 -80 15 0 39 7 54 14 32 17 91 81 91 99 0 7 8 -1 19 -18 35 -57 92 -95 142
-95 17 0 19 8 19 80 l0 80 578 0 c317 0 616 0 665 0 86 0 87 0 87 25 0 19 -5
25 -23 25 -20 0 -23 4 -19 33 4 33 3 34 -53 46 -69 16 -120 58 -136 112 -7 22
-10 41 -8 44 3 2 48 5 102 6 l97 1 0 444 0 444 -1471 0 -1471 0 7 -602z m2885
141 l0 -419 -85 0 c-79 0 -85 -1 -85 -20 0 -59 65 -137 133 -161 34 -12 37
-16 37 -54 l0 -40 -625 2 -624 2 -7 -34 c-3 -19 -4 -57 -3 -84 3 -44 1 -51
-14 -51 -50 0 -113 57 -124 113 -5 21 -13 37 -18 37 -6 -1 -9 -8 -7 -15 8 -39
-64 -121 -116 -131 l-32 -6 0 73 c0 41 -4 79 -8 84 -4 6 -185 10 -507 10
l-499 0 3 48 c2 37 -1 47 -13 47 -12 0 -16 -11 -16 -50 0 -27 -4 -50 -10 -50
-6 0 -10 35 -10 85 0 82 -1 85 -22 85 -31 -1 -99 -33 -119 -56 -10 -10 -24
-39 -32 -64 -34 -103 -37 -68 -37 504 l0 556 1072 0 c589 0 1072 1 1074 2 1 2
158 4 348 5 l346 2 0 -420z"/>
<path d="M153 203 c15 -2 37 -2 50 0 12 2 0 4 -28 4 -27 0 -38 -2 -22 -4z"/>
</g>
</svg>
