<?xml version="1.0" standalone="no"?>
<!DOCTYPE svg PUBLIC "-//W3C//DTD SVG 20010904//EN"
 "http://www.w3.org/TR/2001/REC-SVG-20010904/DTD/svg10.dtd">
<svg version="1.0" xmlns="http://www.w3.org/2000/svg"
 width="574.000000pt" height="350.000000pt" viewBox="0 0 578.000000 339.000000"
 preserveAspectRatio="xMidYMid meet">

<g transform="translate(0.000000,339.000000) scale(0.100000,-0.100000)"
fill="#000000" stroke="none">
<path d="M56 3260 c2 -69 4 -360 4 -647 l0 -523 25 0 25 0 0 575 0 575 550 0
550 0 0 -85 c0 -83 1 -85 24 -85 57 0 156 73 156 115 0 23 18 18 25 -7 15 -50
96 -108 150 -108 25 0 25 1 25 85 l0 85 988 0 c543 1 1023 1 1067 1 44 0 86 0
93 0 8 -1 12 -17 12 -46 l0 -45 185 0 185 0 0 49 0 50 743 -2 742 -2 3 -1563
2 -1562 -1007 -1 c-555 0 -1240 -1 -1523 -2 l-515 -2 -2 43 c0 23 -2 53 -2 67
l-1 25 -185 0 -185 0 0 -70 0 -69 -1040 -1 -1040 0 0 575 0 575 -25 0 -25 0 0
-600 0 -600 1065 0 1065 0 1 -32 c1 -24 3 -27 6 -10 4 21 9 22 84 22 78 0 90
-5 67 -28 -17 -17 13 -16 31 0 11 10 13 10 7 1 -5 -8 -1 -13 9 -13 12 0 15 6
10 20 -6 19 -2 20 69 20 71 0 76 -1 76 -22 0 -29 9 -18 12 14 l2 25 900 6
c494 4 1191 7 1548 7 l648 0 -2 1613 -3 1612 -767 3 -768 2 -1 48 c-1 26 -3
39 -6 30 -4 -15 -17 -18 -83 -18 -63 0 -78 3 -74 14 4 9 -3 14 -21 14 -18 0
-25 -5 -21 -14 4 -11 -11 -14 -74 -14 -66 0 -79 3 -83 18 -3 9 -5 -4 -6 -30
l-1 -48 -102 0 c-57 0 -222 -1 -368 -2 l-265 -3 -3 37 c-3 35 -5 37 -54 47
-28 7 -53 9 -56 6 -3 -3 9 -8 26 -11 31 -6 32 -8 32 -56 l0 -49 -47 1 c-27 1
-337 1 -690 1 l-643 -1 0 -95 c0 -103 -1 -105 -57 -84 -57 21 -113 93 -113
144 0 14 -4 25 -10 25 -5 0 -10 -12 -10 -27 0 -47 -41 -106 -90 -130 -77 -40
-80 -37 -80 72 l0 95 -555 0 -555 0 0 50 c0 38 -4 50 -15 50 -11 0 -15 -12
-15 -50 0 -69 -18 -63 -23 8 -3 31 -3 1 -1 -68z m4054 70 c0 -19 -7 -20 -175
-20 -168 0 -175 1 -175 20 0 19 7 19 175 19 168 0 175 0 175 -19z m0 -50 c0
-19 -7 -20 -175 -20 -168 0 -175 1 -175 20 0 19 7 20 175 20 168 0 175 -1 175
-20z m0 -50 c0 -19 -7 -20 -175 -20 -168 0 -175 1 -175 20 0 19 7 20 175 20
168 0 175 -1 175 -20z m0 -50 c0 -19 -7 -20 -175 -20 -168 0 -175 1 -175 20 0
19 7 20 175 20 168 0 175 -1 175 -20z m-1560 -2960 c0 -19 -7 -20 -175 -20
-168 0 -175 1 -175 20 0 19 7 20 175 20 168 0 175 -1 175 -20z m0 -50 c0 -19
-7 -20 -175 -20 -168 0 -175 1 -175 20 0 19 7 20 175 20 168 0 175 -1 175 -20z
m0 -50 c0 -19 -7 -20 -175 -20 -168 0 -175 1 -175 20 0 19 7 20 175 20 168 0
175 -1 175 -20z m0 -50 c0 -18 -8 -19 -175 -19 -167 0 -175 1 -175 19 0 19 8
20 175 20 167 0 175 -1 175 -20z"/>
</g>

<defs>
  <marker id="arrow" markerWidth="6" markerHeight="6" refX="3" refY="3"
    orient="auto" markerUnits="strokeWidth">
    <path d="M0,0 L6,3 L0,6 Z" fill="black"/>
  </marker>
</defs>

<line x1="2" y1="2" x2="565" y2="2"
  stroke="black" stroke-width="0.5"
  marker-start="url(#arrow)" marker-end="url(#arrow)" />
<text x="288" y="0" font-size="7" text-anchor="middle">2740</text>

<line x1="570" y1="5" x2="570" y2="330"
  stroke="black" stroke-width="0.5"
  marker-start="url(#arrow)" marker-end="url(#arrow)" />
<text x="195" y="323" font-size="7" text-anchor="middle"
  alignment-baseline="middle" transform="rotate(-90,297,46)">1560</text>
  
</svg>
