<?xml version="1.0" standalone="no"?>
<!DOCTYPE svg PUBLIC "-//W3C//DTD SVG 20010904//EN"
 "http://www.w3.org/TR/2001/REC-SVG-20010904/DTD/svg10.dtd">
<svg version="1.0" xmlns="http://www.w3.org/2000/svg"
 width="300.000000pt" height="433.000000pt" viewBox="0 0 300.000000 433.000000"
 preserveAspectRatio="xMidYMid meet">
<metadata>
Created by potrace 1.10, written by Peter Selinger 2001-2011
</metadata>
<g transform="translate(0.000000,433.000000) scale(0.100000,-0.100000)"
fill="#000000" stroke="none">
<path d="M2120 4252 c-34 -15 -60 -40 -70 -66 -6 -18 -10 -241 -10 -652 l0
-624 -60 0 -60 0 0 -115 0 -115 70 0 c57 0 75 -4 106 -25 30 -20 49 -25 100
-25 l64 0 0 -63 c0 -97 -1 -97 224 -97 110 0 195 4 207 10 16 9 19 22 19 80
l0 70 74 0 c81 0 129 22 153 70 10 19 13 189 13 743 0 797 2 769 -65 801 -28
14 -85 16 -392 15 -197 0 -365 -3 -373 -7z m781 -40 l29 -32 0 -733 c0 -813 4
-764 -66 -793 -18 -8 -63 -14 -99 -14 l-65 0 0 -64 c0 -97 3 -96 -214 -96
-128 0 -186 4 -194 12 -7 7 -12 35 -12 64 0 80 -4 84 -69 84 -63 0 -124 25
-129 53 -3 14 2 13 22 -8 23 -23 33 -25 105 -25 l80 0 3 -77 3 -78 192 -3 192
-2 3 77 3 78 93 5 c87 5 95 7 118 33 l24 28 0 724 0 725 -29 32 -29 33 -348 3
c-362 3 -384 1 -421 -40 -17 -19 -18 -59 -23 -657 l-5 -636 -3 636 -2 636 21
27 c12 15 31 32 43 36 11 5 184 8 384 7 l364 -2 29 -33z m-24 -14 l23 -21 0
-733 0 -733 -26 -20 c-26 -20 -38 -21 -381 -21 l-354 0 -24 25 -25 24 0 730 0
730 26 20 c26 20 38 21 382 21 351 0 356 0 379 -22z m-807 -1308 c0 -6 -30
-10 -70 -10 -40 0 -70 4 -70 10 0 6 30 10 70 10 40 0 70 -4 70 -10z m0 -40 c0
-6 -30 -10 -70 -10 -40 0 -70 4 -70 10 0 6 30 10 70 10 40 0 70 -4 70 -10z
m-7 -35 c-2 -5 -32 -11 -68 -13 -54 -2 -65 0 -65 13 0 13 11 15 68 13 38 -2
66 -7 65 -13z m7 -35 c0 -6 -30 -10 -70 -10 -40 0 -70 4 -70 10 0 6 30 10 70
10 40 0 70 -4 70 -10z m0 -41 c0 -12 -47 -12 -54 0 -3 4 -3 10 0 13 7 8 54 -3
54 -13z m-81 -31 c11 -10 14 -10 18 0 3 6 18 12 35 12 19 0 28 -4 26 -12 -3
-8 -29 -14 -71 -16 -55 -2 -67 0 -67 13 0 18 40 20 59 3z m681 -63 c0 -13 -27
-15 -185 -15 -169 0 -198 4 -178 23 3 4 87 7 185 7 152 0 178 -2 178 -15z m0
-40 c0 -13 -27 -15 -185 -15 -169 0 -198 4 -178 23 3 4 87 7 185 7 152 0 178
-2 178 -15z m0 -40 c0 -13 -27 -15 -185 -15 -169 0 -198 4 -178 23 3 4 87 7
185 7 152 0 178 -2 178 -15z m0 -40 c0 -13 -27 -15 -179 -15 -163 0 -203 5
-184 24 3 3 87 6 185 6 152 0 178 -2 178 -15z"/>
<path d="M2337 4033 c-3 -5 78 -7 179 -5 l183 3 4 -123 3 -123 0 125 -1 125
-182 3 c-100 1 -184 -1 -186 -5z"/>
<path d="M2423 3773 c53 -2 141 -2 195 0 53 1 9 3 -98 3 -107 0 -151 -2 -97
-3z"/>
<path d="M2313 3723 c-3 -10 -17 -45 -29 -77 -13 -33 -22 -61 -21 -63 2 -2 15
25 29 59 32 79 39 98 32 98 -2 0 -7 -8 -11 -17z"/>
<path d="M2741 3646 c-1 -14 91 -298 95 -293 2 2 -18 71 -45 153 -27 82 -50
145 -50 140z"/>
<path d="M2313 3123 c103 -2 271 -2 375 0 103 1 18 2 -188 2 -206 0 -291 -1
-187 -2z"/>
<path d="M70 1595 l0 -1145 803 0 802 0 -2 332 c-2 297 -4 333 -19 333 -14 0
-16 -32 -14 -312 l1 -313 -766 0 -765 0 0 728 0 727 746 -3 c523 -2 750 1 759
8 7 6 15 7 17 3 3 -4 4 -146 4 -315 l-1 -308 24 0 c17 0 22 4 17 16 -3 9 -6
326 -6 705 l0 689 -800 0 -800 0 0 -1145z m1565 740 c0 -201 -3 -365 -7 -365
-4 0 -10 5 -13 10 -9 14 -695 11 -712 -3 -9 -6 -13 -6 -13 2 0 15 -103 14
-118 -1 -9 -9 -12 -9 -12 0 0 8 -34 11 -115 11 -81 0 -115 -3 -115 -11 0 -9
-3 -9 -12 0 -16 16 -118 16 -118 0 0 -10 -2 -10 -8 -1 -9 15 -228 17 -237 3
-3 -6 -15 -10 -26 -10 -18 0 -19 10 -19 365 l0 365 763 0 762 0 0 -365z"/>
<path d="M1908 2028 c-2 -150 -1 -394 2 -541 3 -172 1 -272 -5 -279 -7 -7 -7
-12 0 -14 11 -4 10 -517 0 -534 -4 -6 -4 -14 0 -19 3 -5 6 -133 8 -283 l2
-273 359 -3 c211 -1 364 2 369 7 5 5 6 14 3 20 -8 13 -9 528 -1 541 3 5 4 14
0 19 -7 12 -9 517 -1 529 3 5 3 12 0 15 -3 3 -8 119 -11 257 -3 186 -1 255 7
266 10 11 10 17 1 28 -9 11 -11 85 -9 275 l3 261 -362 0 -362 0 -3 -272z m707
-838 l0 -1085 -320 -3 c-176 -1 -330 0 -342 3 l-23 5 0 1079 c0 593 3 1081 7
1085 4 3 158 5 342 4 l336 -3 0 -1085z"/>
</g>
<defs>
  <marker id="arrow" markerWidth="6" markerHeight="6" refX="3" refY="3"
    orient="auto" markerUnits="strokeWidth">
    <path d="M0,0 L6,3 L0,6 Z" fill="black"/>
  </marker>
</defs>

<line x1="7" y1="155" x2="167" y2="155"
  stroke="black" stroke-width="0.5"
  marker-start="url(#arrow)" marker-end="url(#arrow)" />
<text x="90" y="153" font-size="7" text-anchor="middle">1050</text>

<line x1="170" y1="155" x2="170" y2="235"
  stroke="black" stroke-width="0.5"
  marker-start="url(#arrow)" marker-end="url(#arrow)" />
<text x="140" y="-75" font-size="7" text-anchor="middle"
  alignment-baseline="middle" transform="rotate(-90,297,46)">500</text>

<line x1="170" y1="239" x2="170" y2="388"
  stroke="black" stroke-width="0.5"
  marker-start="url(#arrow)" marker-end="url(#arrow)" />
<text x="40" y="-75" font-size="7" text-anchor="middle"
  alignment-baseline="middle" transform="rotate(-90,297,46)">1005</text>

<line x1="191" y1="200" x2="263" y2="200"
  stroke="black" stroke-width="0.5"
  marker-start="url(#arrow)" marker-end="url(#arrow)" />
<text x="225" y="198" font-size="7" text-anchor="middle">480</text>

<line x1="267" y1="200" x2="267" y2="423"
  stroke="black" stroke-width="0.5"
  marker-start="url(#arrow)" marker-end="url(#arrow)" />
<text x="60" y="22" font-size="7" text-anchor="middle"
  alignment-baseline="middle" transform="rotate(-90,297,46)">1500</text>
</svg>
